<svg id="Layer_1" data-name="Layer 1" xmlns="http://www.w3.org/2000/svg" viewBox="0 0 16 16"><defs><style>.cls-1{fill:#338ecc;}</style></defs><path class="cls-1" d="M11.94,1H10.39V2h1.55V1ZM8.84,1H7.3V2H8.84V1ZM5.75,1a2.11,2.11,0,0,0-1.37.5h0l.71.74A1,1,0,0,1,5.75,2h0V1ZM14,9.93H13v1.5h1V9.93Zm0-3H13v1.5h1V6.93Zm0-3H13v1.5h1V3.93ZM13,1.28l-.53.86a1,1,0,0,1,.47.58l1-.28-.06-.16h0a2,2,0,0,0-.83-.9Z"/><path class="cls-1" d="M4.83,3.5H10.1a1.28,1.28,0,0,1,1.31,1.25v5l1,1V4.5a2,2,0,0,0-2.09-2H4.09a1.27,1.27,0,0,0-.28,0Z"/><path class="cls-1" d="M11.41,11.21v1.54A1.28,1.28,0,0,1,10.1,14H4.35a1.27,1.27,0,0,1-1.3-1.25v-8a1.22,1.22,0,0,1,.55-1L2.78,3A2,2,0,0,0,2,4.5V13a2,2,0,0,0,2.09,2h6.27a2,2,0,0,0,2.09-2v-.79Z"/><polygon class="cls-1" points="13.94 13.56 13.21 14.27 1 2.44 1.73 1.73 13.94 13.56"/></svg>