<svg id="Layer_1" data-name="Layer 1" xmlns="http://www.w3.org/2000/svg" viewBox="0 0 32 32"><defs><style>.cls-1{fill:#338ecc;}</style></defs><path class="cls-1" d="M25,2H22V4h3V2ZM19,2H16V4h3V2ZM13,2a4,4,0,0,0-2.64,1h0l0,0h0l0,0,1.36,1.46A2,2,0,0,1,13,4h0V2ZM29,19.86H27v3h2v-3Zm0-6H27v3h2v-3Zm0-6H27v3h2v-3Zm-1.95-5.3L26,4.28a2,2,0,0,1,.9,1.16l1.92-.56a3,3,0,0,0-.11-.32h-.08a4,4,0,0,0-1.6-1.8Z"/><path class="cls-1" d="M11.41,7H21.5A2.5,2.5,0,0,1,24,9.5V19.59l2,2V9a4,4,0,0,0-4-4H10a4.34,4.34,0,0,0-.53,0Z"/><path class="cls-1" d="M24,22.41V25.5A2.5,2.5,0,0,1,21.5,28h-11A2.5,2.5,0,0,1,8,25.5V9.5a2.49,2.49,0,0,1,1.05-2L7.49,5.91A4,4,0,0,0,6,9V26a4,4,0,0,0,4,4H22a4,4,0,0,0,4-4V24.41Z"/><rect class="cls-1" x="15.33" y="-0.73" width="2" height="33.47" transform="translate(-6.53 16.24) rotate(-45)"/></svg>